<svg width="77" height="65" xmlns="http://www.w3.org/2000/svg" xmlns:xlink="http://www.w3.org/1999/xlink" overflow="hidden"><defs><clipPath id="clip0"><rect x="313" y="259" width="77" height="65"/></clipPath></defs><g clip-path="url(#clip0)" transform="translate(-313 -259)"><path d="M314.5 321.114C346.354 329.164 346.354 313.064 378.205 313.064L378.205 271.219 314.5 271.219ZM319.749 271.219 319.749 265.794 383.019 265.794 383.019 307.902C380.614 307.902 378.205 308.193 378.205 308.193L378.205 271.219ZM324.682 265.794 324.682 260.5 388.5 260.5 388.5 302.477C385.759 302.477 383.019 302.695 383.019 302.695L383.019 265.794Z" fill="#FFFFFF" fill-rule="evenodd"/><path d="M314.5 271.219 378.205 271.219 378.205 313.064C346.354 313.064 346.354 329.164 314.5 321.114ZM319.749 271.219 319.749 265.794 383.019 265.794 383.019 307.902C380.614 307.902 378.205 308.193 378.205 308.193M324.682 265.794 324.682 260.5 388.5 260.5 388.5 302.477C385.759 302.477 383.019 302.695 383.019 302.695" stroke="#70AD47" stroke-width="1.33333" stroke-miterlimit="8" fill="none" fill-rule="evenodd"/></g></svg>